<?xml version="1.0" encoding="iso-8859-1"?>
<!-- Generator: Adobe Illustrator 19.0.0, SVG Export Plug-In . SVG Version: 6.00 Build 0)  -->
<svg version="1.1" id="Capa_1" xmlns="http://www.w3.org/2000/svg" xmlns:xlink="http://www.w3.org/1999/xlink" x="0px" y="0px"
	 viewBox="0 0 389.148 389.148" style="enable-background:new 0 0 389.148 389.148;" xml:space="preserve">
<path id="XMLID_1040_" d="M112.518,196.701L72.267,389.148h244.615l-40.251-192.447c-0.67-3.199-1.604-6.364-2.777-9.406
	l-19.749-51.226l6.847-47.804l17.342,1.685l9.996-43.065c2.179-9.386,0.371-19.372-4.959-27.398
	c-5.329-8.026-13.831-13.566-23.326-15.201L235.111,0l-2.87,7.824c-5.771,15.728-20.907,26.294-37.667,26.294
	s-31.896-10.566-37.667-26.294L154.037,0l-24.893,4.284c-9.495,1.635-17.997,7.175-23.326,15.201
	c-5.33,8.026-7.138,18.013-4.959,27.398l9.996,43.065l17.342-1.685l6.847,47.804l-19.748,51.225
	C114.122,190.337,113.188,193.502,112.518,196.701z M126.373,68.348l-6.031-25.985c-0.953-4.106-0.194-8.302,2.138-11.813
	s5.903-5.839,10.058-6.554l9.067-1.562c10.358,19.242,30.709,31.685,52.97,31.685s42.611-12.442,52.97-31.685l9.067,1.562
	c4.154,0.715,7.726,3.042,10.058,6.554s3.091,7.707,2.138,11.813l-6.031,25.985l-18.912-1.837l-7.396,51.638h-83.785l-7.396-51.638
	L126.373,68.348z M133.957,194.489l17.479-45.341h86.275l17.48,45.341c0.786,2.04,1.413,4.163,1.862,6.308l35.212,168.352H96.882
	l35.212-168.35C132.543,198.652,133.17,196.529,133.957,194.489z"/>
<g>
</g>
<g>
</g>
<g>
</g>
<g>
</g>
<g>
</g>
<g>
</g>
<g>
</g>
<g>
</g>
<g>
</g>
<g>
</g>
<g>
</g>
<g>
</g>
<g>
</g>
<g>
</g>
<g>
</g>
</svg>
